<svg width="1200" height="900" viewBox="0 0 1200 900" fill="none" xmlns="http://www.w3.org/2000/svg">
  <rect width="1200" height="900" fill="#F0E6D5"/>
  <rect x="592" y="0" width="16" height="160" rx="8" fill="#6B5B43"/>
  <path d="M600 154C516 154 438 194 396 270C436 450 516 588 600 670C684 588 764 450 804 270C762 194 684 154 600 154Z" fill="#B7965B"/>
  <path d="M600 188C536 188 476 220 440 286C474 430 534 530 600 594C666 530 726 430 760 286C724 220 664 188 600 188Z" fill="#D2B072"/>
  <path d="M470 314H730" stroke="#9E7F4F" stroke-width="16" stroke-linecap="round" opacity="0.75"/>
  <path d="M452 378H748" stroke="#A88855" stroke-width="16" stroke-linecap="round" opacity="0.75"/>
  <path d="M472 442H728" stroke="#A88855" stroke-width="16" stroke-linecap="round" opacity="0.75"/>
  <path d="M500 506H700" stroke="#A88855" stroke-width="16" stroke-linecap="round" opacity="0.72"/>
  <ellipse cx="600" cy="700" rx="226" ry="56" fill="#DCC9A7" opacity="0.58"/>
  <ellipse cx="600" cy="670" rx="150" ry="68" fill="#F6DFA7" opacity="0.78"/>
</svg>
